<svg xmlns="http://www.w3.org/2000/svg" xmlns:xlink="http://www.w3.org/1999/xlink" width="100" zoomAndPan="magnify" viewBox="0 0 75 30.000001" height="40" preserveAspectRatio="xMidYMid meet" version="1.0"><defs><clipPath id="75bf13c432"><path d="M 16 1.152344 L 27 1.152344 L 27 17 L 16 17 Z M 16 1.152344 " clip-rule="nonzero"/></clipPath><clipPath id="1709a46ccd"><path d="M 36 6 L 67.742188 6 L 67.742188 23 L 36 23 Z M 36 6 " clip-rule="nonzero"/></clipPath></defs><path fill="#4e7896" d="M 16.664062 21.734375 C 16.664062 21.734375 15.644531 22.355469 17.375 22.535156 C 19.457031 22.800781 20.574219 22.757812 22.882812 22.3125 C 22.882812 22.3125 23.503906 22.710938 24.347656 23.023438 C 19.152344 25.246094 12.578125 22.890625 16.664062 21.734375 Z M 16 18.847656 C 16 18.847656 14.886719 19.691406 16.621094 19.867188 C 18.886719 20.089844 20.667969 20.136719 23.726562 19.511719 C 23.726562 19.511719 24.125 19.957031 24.792969 20.179688 C 18.53125 22.046875 11.511719 20.359375 16 18.847656 Z M 28.257812 23.914062 C 28.257812 23.914062 29.011719 24.535156 27.414062 25.023438 C 24.4375 25.914062 14.933594 26.179688 12.269531 25.023438 C 11.335938 24.625 13.113281 24.039062 13.6875 23.957031 C 14.265625 23.824219 14.578125 23.824219 14.578125 23.824219 C 13.554688 23.113281 7.78125 25.292969 11.644531 25.910156 C 22.261719 27.640625 31.007812 25.152344 28.257812 23.910156 Z M 17.152344 15.824219 C 17.152344 15.824219 12.3125 16.980469 15.421875 17.378906 C 16.753906 17.554688 19.375 17.511719 21.816406 17.335938 C 23.8125 17.15625 25.8125 16.800781 25.8125 16.800781 C 25.8125 16.800781 25.101562 17.113281 24.613281 17.421875 C 19.683594 18.710938 10.222656 18.132812 12.933594 16.800781 C 15.242188 15.6875 17.152344 15.816406 17.152344 15.816406 Z M 25.8125 20.667969 C 30.789062 18.089844 28.476562 15.601562 26.878906 15.914062 C 26.480469 16 26.300781 16.089844 26.300781 16.089844 C 26.300781 16.089844 26.433594 15.824219 26.746094 15.734375 C 29.898438 14.625 32.386719 19.066406 25.722656 20.800781 C 25.722656 20.800781 25.769531 20.757812 25.8125 20.667969 Z M 17.640625 27.691406 C 22.4375 28.003906 29.765625 27.515625 29.945312 25.246094 C 29.945312 25.246094 29.589844 26.136719 25.992188 26.804688 C 21.90625 27.558594 16.84375 27.46875 13.867188 26.980469 C 13.867188 26.980469 14.488281 27.515625 17.640625 27.691406 Z M 17.640625 27.691406 " fill-opacity="1" fill-rule="nonzero"/><g clip-path="url(#75bf13c432)"><path fill="#f58219" d="M 22.792969 1.152344 C 22.792969 1.152344 25.546875 3.953125 20.171875 8.175781 C 15.863281 11.601562 19.191406 13.554688 20.171875 15.777344 C 17.640625 13.511719 15.820312 11.511719 17.0625 9.644531 C 18.886719 6.886719 23.902344 5.554688 22.792969 1.152344 Z M 21.371094 13.910156 C 22.660156 15.378906 21.015625 16.710938 21.015625 16.710938 C 21.015625 16.710938 24.304688 15.023438 22.792969 12.933594 C 21.417969 10.933594 20.351562 9.953125 26.125 6.621094 C 26.125 6.621094 17.019531 8.886719 21.371094 13.910156 Z M 21.371094 13.910156 " fill-opacity="1" fill-rule="nonzero"/></g><g clip-path="url(#1709a46ccd)"><path fill="#4e7896" d="M 49.832031 19.1875 L 49.832031 12.429688 C 49.832031 10.707031 48.867188 9.535156 46.457031 9.535156 C 45.078125 9.535156 43.90625 9.878906 42.875 10.292969 L 43.21875 11.535156 C 43.976562 11.257812 44.941406 10.980469 45.976562 10.980469 C 47.285156 10.980469 47.902344 11.535156 47.902344 12.636719 L 47.902344 13.535156 L 47.222656 13.535156 C 43.914062 13.535156 42.398438 14.777344 42.398438 16.777344 C 42.398438 18.429688 43.429688 19.394531 45.292969 19.394531 C 46.464844 19.394531 47.359375 18.84375 48.183594 18.15625 L 48.324219 19.1875 L 49.835938 19.1875 Z M 47.902344 16.980469 C 47.214844 17.601562 46.457031 17.949219 45.765625 17.949219 C 44.871094 17.949219 44.320312 17.394531 44.320312 16.429688 C 44.320312 15.464844 44.871094 14.777344 47.078125 14.777344 L 47.902344 14.777344 L 47.902344 16.984375 Z M 56.308594 19.1875 L 53.898438 19.1875 L 51.003906 9.742188 L 53.070312 9.742188 L 54.863281 15.535156 L 55.277344 17.261719 C 56.171875 14.777344 56.859375 12.226562 57.136719 9.742188 L 59.203125 9.742188 C 58.652344 12.847656 57.6875 16.226562 56.308594 19.191406 Z M 67.46875 19.1875 L 67.46875 12.429688 C 67.46875 10.707031 66.503906 9.535156 64.09375 9.535156 C 62.714844 9.535156 61.542969 9.878906 60.507812 10.292969 L 60.785156 11.535156 C 61.613281 11.257812 62.578125 10.980469 63.609375 10.980469 C 64.917969 10.980469 65.539062 11.535156 65.539062 12.636719 L 65.539062 13.535156 L 64.851562 13.535156 C 61.542969 13.535156 60.027344 14.777344 60.027344 16.777344 C 60.027344 18.429688 60.992188 19.394531 62.851562 19.394531 C 64.09375 19.394531 64.988281 18.84375 65.816406 18.15625 L 65.953125 19.1875 Z M 65.539062 16.980469 C 64.851562 17.601562 64.09375 17.949219 63.402344 17.949219 C 62.507812 17.949219 61.957031 17.394531 61.957031 16.429688 C 61.957031 15.464844 62.507812 14.777344 64.714844 14.777344 L 65.539062 14.777344 L 65.539062 16.984375 Z M 40.253906 20.773438 C 39.703125 21.601562 38.878906 22.222656 37.84375 22.566406 L 36.949219 21.464844 C 37.636719 21.050781 38.324219 20.429688 38.601562 19.878906 C 38.878906 19.394531 38.945312 18.707031 38.945312 17.121094 L 38.945312 6.363281 L 41.011719 6.363281 L 41.011719 16.980469 C 41.011719 19.121094 40.804688 19.949219 40.257812 20.773438 Z M 40.253906 20.773438 " fill-opacity="1" fill-rule="nonzero"/></g></svg>