<svg xmlns="http://www.w3.org/2000/svg" xmlns:xlink="http://www.w3.org/1999/xlink" width="100" zoomAndPan="magnify" viewBox="0 0 75 30.000001" height="40" preserveAspectRatio="xMidYMid meet" version="1.0"><defs><clipPath id="bd798b0ae9"><path d="M 23 9 L 72.394531 9 L 72.394531 20 L 23 20 Z M 23 9 " clip-rule="nonzero"/></clipPath><clipPath id="05f4d98a3f"><path d="M 2.714844 5.074219 L 21 5.074219 L 21 23.945312 L 2.714844 23.945312 Z M 2.714844 5.074219 " clip-rule="nonzero"/></clipPath><clipPath id="cafd893311"><path d="M 11 5.074219 L 21 5.074219 L 21 23.945312 L 11 23.945312 Z M 11 5.074219 " clip-rule="nonzero"/></clipPath></defs><g clip-path="url(#bd798b0ae9)"><path fill="#b52e31" d="M 23.210938 19.027344 L 23.210938 10.476562 L 24.316406 10.476562 L 29.554688 17.359375 L 29.554688 10.476562 L 30.601562 10.476562 L 30.601562 19.027344 L 29.5 19.027344 L 24.261719 12.078125 L 24.261719 19.027344 Z M 39.132812 18.691406 C 38.4375 18.949219 37.691406 19.082031 36.902344 19.082031 C 33.796875 19.082031 32.246094 17.601562 32.246094 14.628906 C 32.246094 11.820312 33.746094 10.40625 36.738281 10.40625 C 37.59375 10.40625 38.398438 10.53125 39.132812 10.761719 L 39.132812 11.710938 C 38.398438 11.425781 37.636719 11.289062 36.859375 11.289062 C 34.519531 11.289062 33.347656 12.402344 33.347656 14.601562 C 33.347656 16.980469 34.507812 18.160156 36.804688 18.160156 C 37.171875 18.160156 37.582031 18.105469 38.03125 18.011719 L 38.03125 15.144531 L 39.132812 15.144531 Z M 40.902344 15.730469 L 40.902344 10.476562 L 42.003906 10.476562 L 42.003906 15.730469 C 42.003906 17.371094 42.820312 18.199219 44.464844 18.199219 C 46.097656 18.199219 46.929688 17.371094 46.929688 15.730469 L 46.929688 10.476562 L 48.03125 10.476562 L 48.03125 15.730469 C 48.03125 17.96875 46.847656 19.097656 44.464844 19.097656 C 42.085938 19.097656 40.902344 17.96875 40.902344 15.730469 Z M 51.105469 10.476562 L 51.105469 18.132812 L 55.597656 18.132812 L 55.597656 19.027344 L 50.003906 19.027344 L 50.003906 10.476562 Z M 57.1875 19.027344 L 56.03125 19.027344 L 60.289062 9.347656 L 64.550781 19.027344 L 63.324219 19.027344 L 62.222656 16.339844 L 59.390625 16.339844 L 59.691406 15.445312 L 61.855469 15.445312 L 60.25 11.574219 Z M 65.734375 19.027344 L 65.734375 10.476562 L 69.394531 10.476562 C 71.027344 10.476562 71.84375 11.15625 71.84375 12.527344 C 71.84375 13.640625 71.039062 14.46875 69.449219 14.996094 L 72.386719 19.027344 L 70.929688 19.027344 L 68.210938 15.1875 L 68.210938 14.46875 C 69.84375 14.210938 70.671875 13.585938 70.671875 12.582031 C 70.671875 11.792969 70.222656 11.398438 69.3125 11.398438 L 66.863281 11.398438 L 66.863281 19.027344 Z M 65.734375 19.027344 " fill-opacity="1" fill-rule="evenodd"/></g><g clip-path="url(#05f4d98a3f)"><path fill="#e23237" d="M 2.722656 8.195312 L 11.496094 5.074219 L 20.503906 8.140625 L 19.050781 19.722656 L 11.496094 23.890625 L 4.066406 19.777344 Z M 2.722656 8.195312 " fill-opacity="1" fill-rule="evenodd"/></g><g clip-path="url(#cafd893311)"><path fill="#b52e31" d="M 20.503906 8.140625 L 11.496094 5.074219 L 11.496094 23.890625 L 19.050781 19.722656 Z M 20.503906 8.140625 " fill-opacity="1" fill-rule="evenodd"/></g><path fill="#ffffff" d="M 11.511719 7.273438 L 6.042969 19.410156 L 8.082031 19.367188 L 9.183594 16.625 L 14.070312 16.625 L 15.265625 19.394531 L 17.210938 19.4375 Z M 11.523438 11.167969 L 13.375 15.023438 L 9.90625 15.023438 Z M 11.523438 11.167969 " fill-opacity="1" fill-rule="evenodd"/></svg>